<svg width="1024" height="1024" viewBox="0 0 1024 1024" fill="none" xmlns="http://www.w3.org/2000/svg">
<path d="M511.997 -2.09053e-07C482.231 -2.09053e-07 454.225 11.5908 433.158 32.6556L348.49 117.313H228.753C198.965 117.313 170.959 128.904 149.913 149.948C128.867 171.012 117.274 199.015 117.274 228.778V348.502L32.6071 433.159C-10.869 476.63 -10.869 547.37 32.6071 590.82L130.418 688.619C121.677 721.547 117.274 757.263 117.274 795.201C117.274 824.985 128.867 852.988 149.913 874.052C170.959 895.096 198.965 906.687 228.753 906.687H348.49L433.158 991.344C454.225 1012.41 482.231 1024 511.997 1024C541.764 1024 569.77 1012.41 590.837 991.344L675.504 906.687H795.242C825.03 906.687 853.035 895.096 874.082 874.052C895.128 852.967 906.72 824.985 906.72 795.201V675.498L991.409 590.82C1034.86 547.37 1034.86 476.63 991.409 433.159L893.577 335.381C902.318 302.474 906.72 266.716 906.72 228.778C906.72 198.994 895.128 171.012 874.082 149.948C853.035 128.904 825.03 117.313 795.242 117.313H675.504L590.837 32.6556C569.77 11.5908 541.764 -2.09053e-07 511.997 -2.09053e-07Z" fill="white"/>
<path d="M931.232 530.677L530.661 931.201C525.609 936.252 519.152 938.935 511.983 938.935C504.835 938.935 498.379 936.252 493.327 931.201L393.902 831.788C297.076 731.62 320.345 534.953 511.983 534.953C668.342 534.953 774.58 482.616 826.776 388.883L931.232 493.326C941.525 503.617 941.525 520.385 931.232 530.677ZM197.211 635.12L92.7553 530.677C82.4627 520.385 82.4627 503.617 92.7553 493.326L493.327 92.8017C498.379 87.7294 504.835 85.0467 511.983 85.0467C519.152 85.0467 525.609 87.7294 530.661 92.8017L630.086 192.194C726.911 292.362 703.643 489.029 511.983 489.029C355.645 489.05 249.408 541.366 197.211 635.12ZM961.334 463.249L845.433 347.361C857.843 312.169 864.194 272.555 864.194 228.79C864.194 210.366 857.025 193.053 844.008 180.037C830.99 167 813.654 159.832 795.249 159.832H657.882L560.763 62.7242C547.745 49.708 530.43 42.5188 511.983 42.5188C493.578 42.5188 476.263 49.708 463.225 62.7242L366.106 159.832H228.739C210.334 159.832 193.019 167 179.98 180.037C166.962 193.053 159.793 210.366 159.793 228.79V366.12L62.6532 463.249C35.7793 490.119 35.7793 533.863 62.6532 560.754L178.555 676.621C166.145 711.834 159.793 751.448 159.793 795.213C159.793 813.637 166.962 830.929 179.98 843.966C193.019 856.982 210.334 864.171 228.739 864.171H366.106L463.225 961.258C476.263 974.295 493.578 981.463 511.983 981.463C530.43 981.463 547.745 974.295 560.763 961.258L657.882 864.15H795.249C813.654 864.15 830.99 856.982 844.008 843.966C857.025 830.929 864.194 813.637 864.194 795.213V657.883L961.334 560.754C988.208 533.863 988.208 490.119 961.334 463.249Z" fill="#1F8B6C"/>
</svg>
