<svg width="24" height="24" viewBox="0 0 24 24" fill="none" xmlns="http://www.w3.org/2000/svg">
<g id="Alert">
<path id="Vector 1927" d="M7.0306 18.116H6.85402C6.23383 18.116 5.67984 18.5038 5.46761 19.0865C5.1171 20.0489 5.82977 21.067 6.85402 21.067H17.1442C18.169 21.067 18.8817 20.048 18.5302 19.0853C18.3176 18.5032 17.7639 18.116 17.1442 18.116H16.9605M7.0306 18.116V13.1725C7.0306 10.4304 9.25348 8.20757 11.9955 8.20757C14.7376 8.20757 16.9605 10.4304 16.9605 13.1725V18.116M7.0306 18.116H16.9605" stroke="#2AA65C" stroke-width="2" stroke-linecap="round" stroke-linejoin="round"/>
<path id="Vector 1928" opacity="0.5" d="M13.7585 13.3353L13.7585 14.9435" stroke="#2AA65C" stroke-width="2" stroke-linecap="round" stroke-linejoin="round"/>
<path id="Vector 1929" opacity="0.5" d="M3.60815 12.284L2.00003 12.284" stroke="#2AA65C" stroke-width="2" stroke-linecap="round" stroke-linejoin="round"/>
<path id="Vector 1932" opacity="0.5" d="M20.3918 12.284L22 12.284" stroke="#2AA65C" stroke-width="2" stroke-linecap="round" stroke-linejoin="round"/>
<path id="Vector 1930" opacity="0.5" d="M6.30957 6.43867L5.17245 5.30155" stroke="#2AA65C" stroke-width="2" stroke-linecap="round" stroke-linejoin="round"/>
<path id="Vector 1933" opacity="0.5" d="M17.6904 6.43867L18.8275 5.30155" stroke="#2AA65C" stroke-width="2" stroke-linecap="round" stroke-linejoin="round"/>
<path id="Vector 1931" opacity="0.5" d="M12 4.54134L12 2.93322" stroke="#2AA65C" stroke-width="2" stroke-linecap="round" stroke-linejoin="round"/>
</g>
</svg>
