<svg width="24" height="24" viewBox="0 0 24 24" fill="none" xmlns="http://www.w3.org/2000/svg">
<path d="M11.8518 10.7354C11.7769 10.7279 11.6871 10.7279 11.6048 10.7354C9.8229 10.6755 8.4079 9.21556 8.4079 7.41873C8.4079 5.58447 9.89028 4.0946 11.732 4.0946C13.5663 4.0946 15.0562 5.58447 15.0562 7.41873C15.0487 9.21556 13.6337 10.6755 11.8518 10.7354Z" stroke="#2AA65C" stroke-width="2" stroke-linecap="round" stroke-linejoin="round"/>
<path opacity="0.5" d="M17.4707 6.0105C18.9232 6.0105 20.0911 7.18592 20.0911 8.63087C20.0911 10.0459 18.9681 11.1988 17.5681 11.2512C17.5082 11.2438 17.4408 11.2438 17.3734 11.2512" stroke="#2AA65C" stroke-width="2" stroke-linecap="round" stroke-linejoin="round"/>
<path opacity="0.5" d="M5.99386 6.0105C4.54142 6.0105 3.37349 7.18592 3.37349 8.63087C3.37349 10.0459 4.4965 11.1988 5.89653 11.2512C5.95642 11.2438 6.02381 11.2438 6.09119 11.2512" stroke="#2AA65C" stroke-width="2" stroke-linecap="round" stroke-linejoin="round"/>
<path d="M7.98489 13.9167C6.17309 15.1296 6.17309 17.1061 7.98489 18.3115C10.0438 19.689 13.4203 19.689 15.4792 18.3115C17.291 17.0986 17.291 15.1221 15.4792 13.9167C13.4278 12.5466 10.0512 12.5466 7.98489 13.9167Z" stroke="#2AA65C" stroke-width="2" stroke-linecap="round" stroke-linejoin="round"/>
<path opacity="0.5" d="M18.9156 17.9894C19.4547 17.8771 19.9638 17.66 20.3831 17.338C21.551 16.4621 21.551 15.0171 20.3831 14.1412C19.9713 13.8267 19.4697 13.6171 18.9381 13.4973" stroke="#2AA65C" stroke-width="2" stroke-linecap="round" stroke-linejoin="round"/>
<path opacity="0.5" d="M4.54871 17.9894C4.00966 17.8771 3.50056 17.66 3.0813 17.338C1.91336 16.4621 1.91336 15.0171 3.0813 14.1412C3.49307 13.8267 3.99468 13.6171 4.52625 13.4973" stroke="#2AA65C" stroke-width="2" stroke-linecap="round" stroke-linejoin="round"/>
</svg>
